# xmcd
#
# Track frame offsets:
#	150
#	24765
#	46230
#	64405
#	77614
#	92642
#	107647
#	119852
#	135753
#	144114
#	154739
#	171728
#	185183
#	201336
#	219338
#	242211
#	253869
#	265990
#
# Disc length: 3647 seconds
#
# Revision: 2
# Processed by: cddbd v1.5.2PL0 Copyright (c) Steve Scherf et al.
# Submitted via: EasyCDDAExtractor 16.0.8.2
#
DISCID=070e3d12
DTITLE=Συλλογικός δίσκος - Ο γάμος καλορίζικος
DYEAR=2007
DGENRE=Παραδοσιακή
TTITLE0=Σακαλής Δημήτρης - Σήμερα γάμος γίνεται [παραδοσιακό]
TTITLE1=Μετζελόπουλος Κώστας-Φραγκούλη Κική - Ωραία πού 'ναι η νύφη μας [παραδ
TTITLE1=οσιακό]
TTITLE2=Κοτσιναδέλλης Θανάσης-χορωδία - Νυφικάτο: Σήμερα γάμος γίνεται [παραδο
TTITLE2=σιακό]
TTITLE3=Σίκκης Χρήστος - Ο χορός του αντροΰνου [παραδοσιακό]
TTITLE4=Ξενοπούλου Ευαγγελία - Μάνα χαρά, μάνα χαρά [παραδοσιακό]
TTITLE5=Σακαλής Δημήτρης - Ας είναι η ώρα η καλή [παραδοσιακό]
TTITLE6=Βέρρα Ευγενία - Σ' αυτό το σπίτι πού 'ρθαμε [παραδοσιακό]
TTITLE7=Ανδριόπουλος Ανδρέας - Μην με κοιτάτε ανύπαντρες [παραδοσιακό]
TTITLE8=Κουλλιά Καίτη - Τραγούδι του γάμου [παραδοσιακό]
TTITLE9=Σακαλής Δημήτρης - Φίλοι μ' καλώς ορίσατε [παραδοσιακό]
TTITLE10=Μετζελόπουλος Κώστας - Σ' όσους γάμους κι αν επήγα [παραδοσιακό]
TTITLE11=Σακαλής Δημήτρης - Ο γάμος καλορίζικος [παραδοσιακό]
TTITLE12=Ανδριόπουλος Ανδρέας - Τρία χρυσά γαρύφαλλα [παραδοσιακό]
TTITLE13=Μετζελόπουλος Κώστας - Πατέρα μου μ' ανάθρεψες [παραδοσιακό]
TTITLE14=Μανιά Παρασκευή - Την νύφη μας την είχαμε [παραδοσιακό]
TTITLE15=Σοφού Φωτούλα - Τού γαμπρού [παραδοσιακό]
TTITLE16=Χορωδία γυναικών - Την πέρδικα που πιάσατε [παραδοσιακό]
TTITLE17=Πολυφ. συγκρ. Δημήτρη Δέδε - Της νύφης [παραδοσιακό]
EXTD=
EXTT0=
EXTT1=
EXTT2=
EXTT3=
EXTT4=
EXTT5=
EXTT6=
EXTT7=
EXTT8=
EXTT9=
EXTT10=
EXTT11=
EXTT12=
EXTT13=
EXTT14=
EXTT15=
EXTT16=
EXTT17=
PLAYORDER=
